# xmcd CD database file
#
# Track frame offsets:
#	150
#	90780
#	158205
#	201060
#	250170
#	283495
#
# Disc length: 4137 seconds
#
# Revision: 0
# Processed by: cddbd v1.4PL0 Copyright (c) Steve Scherf et al.
# Submitted via: CDex 1.50
#
DISCID=4a102706
DTITLE=Daniel Kobialka - silk Branches
DYEAR=1900
DGENRE=New Age
TTITLE0=Harmonious Blacksmith
TTITLE1=Choral and Variations
TTITLE2=Medley, Poloditsian Dance
TTITLE3=Path of Joy
TTITLE4=Silk Branches
TTITLE5=Space Camp
EXTD=
EXTT0=
EXTT1=
EXTT2=
EXTT3=
EXTT4=
EXTT5=
PLAYORDER=
